<svg width="55" height="40" viewBox="0 0 55 40" fill="none" xmlns="http://www.w3.org/2000/svg">
<g clip-path="url(#clip0_35_28)">
<rect width="55" height="40" fill="white"/>
<path d="M25.725 2.1V27.2C25.725 28.7667 25.4583 30.1833 24.925 31.45C24.425 32.7167 23.6917 33.8 22.725 34.7C21.7917 35.6 20.6417 36.3 19.275 36.8C17.9083 37.3 16.375 37.55 14.675 37.55C11.4417 37.55 8.925 36.7167 7.125 35.05C5.325 33.35 4.175 31.1 3.675 28.3L9.775 27.05C10.075 28.55 10.6083 29.7167 11.375 30.55C12.175 31.35 13.2583 31.75 14.625 31.75C15.925 31.75 16.9917 31.35 17.825 30.55C18.6917 29.7167 19.125 28.45 19.125 26.75V7.5H8.125V2.1H25.725ZM41.4211 7.95V37H34.8211V7.95H24.9211V2.1H51.3211V7.95H41.4211Z" fill="#121148"/>
</g>
<defs>
<clipPath id="clip0_35_28">
<rect width="55" height="40" fill="white"/>
</clipPath>
</defs>
</svg>
